<?xml version="1.0" encoding="UTF-8"?>
<svg xmlns="http://www.w3.org/2000/svg" xmlns:xlink="http://www.w3.org/1999/xlink" width="24px" height="24px" viewBox="0 0 24 24" version="1.1">
<g id="surface1">
<path style=" stroke:none;fill-rule:evenodd;fill:rgb(100%,100%,100%);fill-opacity:1;" d="M 19.140625 0.515625 C 17.996094 0.851562 17.203125 1.898438 17.203125 3.070312 C 17.203125 3.78125 17.464844 4.394531 17.996094 4.925781 C 18.578125 5.507812 19.289062 5.773438 20.085938 5.699219 C 20.761719 5.640625 21.328125 5.355469 21.804688 4.835938 C 23.136719 3.394531 22.457031 1.058594 20.539062 0.511719 C 20.136719 0.394531 19.535156 0.398438 19.140625 0.515625 M 1.664062 6.949219 C 1.648438 6.980469 1.644531 7.9375 1.652344 9.070312 L 1.664062 11.132812 L 5.125 11.144531 C 8.074219 11.15625 8.585938 11.167969 8.5625 11.222656 C 8.546875 11.257812 8.085938 11.800781 7.535156 12.429688 C 4.554688 15.832031 2.207031 18.515625 2.054688 18.703125 C 1.285156 19.660156 1.164062 20.945312 1.746094 21.984375 C 2.136719 22.683594 2.851562 23.222656 3.601562 23.386719 C 3.777344 23.421875 6.09375 23.4375 11.757812 23.4375 C 20.535156 23.4375 19.898438 23.460938 20.550781 23.121094 C 20.996094 22.890625 21.53125 22.355469 21.761719 21.910156 C 22.101562 21.257812 22.078125 21.800781 22.078125 13.957031 L 22.078125 6.890625 L 17.625 6.890625 L 17.613281 12.738281 C 17.601562 18.15625 17.59375 18.597656 17.519531 18.734375 C 17.425781 18.90625 17.1875 19.117188 17.046875 19.148438 C 16.992188 19.164062 14.886719 19.167969 12.367188 19.160156 L 7.789062 19.148438 L 9.597656 17.109375 C 10.589844 15.988281 12.179688 14.191406 13.132812 13.117188 C 15.035156 10.976562 15.042969 10.964844 15.234375 10.59375 C 15.4375 10.191406 15.515625 9.867188 15.515625 9.417969 C 15.515625 8.933594 15.410156 8.542969 15.164062 8.132812 C 14.863281 7.632812 14.433594 7.277344 13.839844 7.039062 L 13.523438 6.914062 L 7.605469 6.902344 C 2.847656 6.890625 1.679688 6.898438 1.664062 6.949219 "/>
</g>
</svg>
