<?xml version="1.0" encoding="UTF-8"?>
<!DOCTYPE svg PUBLIC "-//W3C//DTD SVG 1.1//EN" "http://www.w3.org/Graphics/SVG/1.1/DTD/svg11.dtd">
<svg xmlns="http://www.w3.org/2000/svg" version="1.1" width="512px" height="512px" style="shape-rendering:geometricPrecision; text-rendering:geometricPrecision; image-rendering:optimizeQuality; fill-rule:evenodd; clip-rule:evenodd" xmlns:xlink="http://www.w3.org/1999/xlink">
<g><path style="opacity:1" fill="#6989a0" d="M 413.5,9.5 C 416.482,8.83511 419.648,8.50178 423,8.5C 427.772,8.30784 432.272,8.97451 436.5,10.5C 428.862,9.68689 421.196,9.35356 413.5,9.5 Z"/></g>
<g><path style="opacity:1" fill="#013e65" d="M 413.5,9.5 C 421.196,9.35356 428.862,9.68689 436.5,10.5C 438.216,10.6287 439.883,10.962 441.5,11.5C 443.107,14.7154 445.774,16.0487 449.5,15.5C 449.833,15.5 450.167,15.5 450.5,15.5C 451.035,17.4456 452.368,18.4456 454.5,18.5C 457.093,19.7536 459.427,21.4202 461.5,23.5C 461.738,25.4044 462.738,26.7377 464.5,27.5C 465.5,27.8333 466.167,28.5 466.5,29.5C 467.262,33.3673 469.262,36.3673 472.5,38.5C 472.502,42.1645 473.835,45.1645 476.5,47.5C 476.5,47.8333 476.5,48.1667 476.5,48.5C 476.41,51.1522 477.076,53.4855 478.5,55.5C 478.5,55.8333 478.5,56.1667 478.5,56.5C 478.521,63.8536 478.187,71.1869 477.5,78.5C 475.687,81.4065 474.021,84.4065 472.5,87.5C 471.534,89.396 471.201,91.396 471.5,93.5C 466.095,102.572 458.762,109.572 449.5,114.5C 444.522,114.814 440.188,116.48 436.5,119.5C 427.5,122.167 418.5,122.167 409.5,119.5C 407.316,117.415 404.649,116.415 401.5,116.5C 399.447,116.598 397.78,115.931 396.5,114.5C 396.027,113.094 395.027,112.427 393.5,112.5C 390.461,109.46 387.127,106.794 383.5,104.5C 382.5,104.167 381.833,103.5 381.5,102.5C 381.512,99.858 380.179,98.5246 377.5,98.5C 375.902,96.3021 374.569,93.9687 373.5,91.5C 373.614,88.784 372.614,86.784 370.5,85.5C 369.766,84.2921 369.433,82.9587 369.5,81.5C 368.694,76.0263 368.028,70.5263 367.5,65C 367.99,58.3992 368.99,51.8992 370.5,45.5C 370.5,45.1667 370.5,44.8333 370.5,44.5C 372.969,43.3933 373.969,41.3933 373.5,38.5C 377.235,35.677 379.902,32.0103 381.5,27.5C 383.167,26.5 384.5,25.1667 385.5,23.5C 385.833,22.5 386.5,21.8333 387.5,21.5C 389.404,21.2624 390.738,20.2624 391.5,18.5C 393.027,18.573 394.027,17.9063 394.5,16.5C 394.842,15.6618 395.508,15.3284 396.5,15.5C 398.604,15.7989 400.604,15.4656 402.5,14.5C 404.849,13.4571 406.849,12.1238 408.5,10.5C 410.042,9.69929 411.708,9.36596 413.5,9.5 Z"/></g>
<g><path style="opacity:1" fill="#295678" d="M 408.5,10.5 C 406.849,12.1238 404.849,13.4571 402.5,14.5C 400.604,15.4656 398.604,15.7989 396.5,15.5C 399.982,12.7637 403.982,11.097 408.5,10.5 Z"/></g>
<g><path style="opacity:1" fill="#416784" d="M 441.5,11.5 C 444.485,12.3257 447.151,13.659 449.5,15.5C 445.774,16.0487 443.107,14.7154 441.5,11.5 Z"/></g>
<g><path style="opacity:1" fill="#577992" d="M 450.5,15.5 C 452.23,16.0256 453.564,17.0256 454.5,18.5C 452.368,18.4456 451.035,17.4456 450.5,15.5 Z"/></g>
<g><path style="opacity:1" fill="#557b94" d="M 394.5,16.5 C 394.027,17.9063 393.027,18.573 391.5,18.5C 391.973,17.0937 392.973,16.427 394.5,16.5 Z"/></g>
<g><path style="opacity:1" fill="#567a94" d="M 391.5,18.5 C 390.738,20.2624 389.404,21.2624 387.5,21.5C 388.262,19.7376 389.596,18.7376 391.5,18.5 Z"/></g>
<g><path style="opacity:1" fill="#68869c" d="M 461.5,23.5 C 463.262,24.2623 464.262,25.5956 464.5,27.5C 462.738,26.7377 461.738,25.4044 461.5,23.5 Z"/></g>
<g><path style="opacity:1" fill="#62849a" d="M 385.5,23.5 C 384.5,25.1667 383.167,26.5 381.5,27.5C 381.833,25.1667 383.167,23.8333 385.5,23.5 Z"/></g>
<g><path style="opacity:1" fill="#345e7f" d="M 381.5,27.5 C 379.902,32.0103 377.235,35.677 373.5,38.5C 374.946,33.9391 377.613,30.2724 381.5,27.5 Z"/></g>
<g><path style="opacity:1" fill="#3a6382" d="M 466.5,29.5 C 469.241,31.9754 471.241,34.9754 472.5,38.5C 469.262,36.3673 467.262,33.3673 466.5,29.5 Z"/></g>
<g><path style="opacity:1" fill="#3f6885" d="M 472.5,38.5 C 474.592,41.0884 475.925,44.0884 476.5,47.5C 473.835,45.1645 472.502,42.1645 472.5,38.5 Z"/></g>
<g><path style="opacity:1" fill="#376180" d="M 373.5,38.5 C 373.969,41.3933 372.969,43.3933 370.5,44.5C 370.992,42.1815 371.992,40.1815 373.5,38.5 Z"/></g>
<g><path style="opacity:1" fill="#5b7f97" d="M 476.5,48.5 C 477.924,50.5145 478.59,52.8478 478.5,55.5C 477.076,53.4855 476.41,51.1522 476.5,48.5 Z"/></g>
<g><path style="opacity:1" fill="#56788f" d="M 370.5,45.5 C 368.99,51.8992 367.99,58.3992 367.5,65C 368.028,70.5263 368.694,76.0263 369.5,81.5C 367.176,76.3716 366.176,70.8716 366.5,65C 366.255,58.053 367.589,51.553 370.5,45.5 Z"/></g>
<g><path style="opacity:1" fill="#5e8097" d="M 478.5,56.5 C 479.164,59.1459 479.498,61.9792 479.5,65C 479.634,69.7584 478.968,74.2584 477.5,78.5C 478.187,71.1869 478.521,63.8536 478.5,56.5 Z"/></g>
<g><path style="opacity:1" fill="#426986" d="M 477.5,78.5 C 476.657,84.043 474.657,89.043 471.5,93.5C 471.201,91.396 471.534,89.396 472.5,87.5C 474.021,84.4065 475.687,81.4065 477.5,78.5 Z"/></g>
<g><path style="opacity:1" fill="#50738e" d="M 370.5,85.5 C 372.614,86.784 373.614,88.784 373.5,91.5C 371.992,89.8185 370.992,87.8185 370.5,85.5 Z"/></g>
<g><path style="opacity:1" fill="#376080" d="M 377.5,98.5 C 380.179,98.5246 381.512,99.858 381.5,102.5C 379.833,101.5 378.5,100.167 377.5,98.5 Z"/></g>
<g><path style="opacity:1" fill="#406886" d="M 383.5,104.5 C 387.127,106.794 390.461,109.46 393.5,112.5C 389.296,110.967 385.963,108.3 383.5,104.5 Z"/></g>
<g><path style="opacity:1" fill="#5e8198" d="M 393.5,112.5 C 395.027,112.427 396.027,113.094 396.5,114.5C 394.973,114.573 393.973,113.906 393.5,112.5 Z"/></g>
<g><path style="opacity:1" fill="#3d6482" d="M 449.5,114.5 C 445.623,117.129 441.29,118.796 436.5,119.5C 440.188,116.48 444.522,114.814 449.5,114.5 Z"/></g>
<g><path style="opacity:1" fill="#416a87" d="M 401.5,116.5 C 404.649,116.415 407.316,117.415 409.5,119.5C 406.351,119.585 403.684,118.585 401.5,116.5 Z"/></g>
<g><path style="opacity:1" fill="#4e6f88" d="M 283.5,147.5 C 201.167,147.5 118.833,147.5 36.5,147.5C 36.5,177.167 36.5,206.833 36.5,236.5C 36.1667,236.5 35.8333,236.5 35.5,236.5C 34.1682,206.764 34.1682,176.931 35.5,147C 118.334,146.168 201.001,146.334 283.5,147.5 Z"/></g>
<g><path style="opacity:1" fill="#003e65" d="M 283.5,147.5 C 286.273,148.657 289.273,149.324 292.5,149.5C 293.959,149.433 295.292,149.766 296.5,150.5C 297.784,152.614 299.784,153.614 302.5,153.5C 305.167,155.167 307.833,156.833 310.5,158.5C 310.5,159.833 310.5,161.167 310.5,162.5C 311.833,162.5 313.167,162.5 314.5,162.5C 315.419,165.089 317.086,167.089 319.5,168.5C 322.502,171.161 324.502,174.495 325.5,178.5C 326.256,182.767 327.589,186.767 329.5,190.5C 329.61,198.525 329.276,206.525 328.5,214.5C 326.692,215.918 326.025,217.918 326.5,220.5C 326.5,220.833 326.5,221.167 326.5,221.5C 322.633,223.638 320.633,226.971 320.5,231.5C 319.5,231.5 318.5,231.5 317.5,231.5C 317.5,232.833 317.5,234.167 317.5,235.5C 313.247,242.09 308.247,248.09 302.5,253.5C 301.167,253.5 299.833,253.5 298.5,253.5C 298.5,254.833 298.5,256.167 298.5,257.5C 291.804,265.192 285.138,272.859 278.5,280.5C 277.167,280.5 275.833,280.5 274.5,280.5C 274.5,281.833 274.5,283.167 274.5,284.5C 273.5,285.833 272.5,287.167 271.5,288.5C 270.167,288.5 268.833,288.5 267.5,288.5C 267.5,289.833 267.5,291.167 267.5,292.5C 266.833,293.833 265.833,294.833 264.5,295.5C 263.094,295.973 262.427,296.973 262.5,298.5C 262.5,299.167 262.167,299.5 261.5,299.5C 260.167,299.5 258.833,299.5 257.5,299.5C 257.5,300.833 257.5,302.167 257.5,303.5C 257.5,304.167 257.167,304.5 256.5,304.5C 255.5,304.5 254.5,304.5 253.5,304.5C 253.5,305.833 253.5,307.167 253.5,308.5C 249.393,313.727 245.06,318.727 240.5,323.5C 239.167,323.5 237.833,323.5 236.5,323.5C 236.5,324.833 236.5,326.167 236.5,327.5C 227.844,338.154 218.844,348.488 209.5,358.5C 208.167,358.5 206.833,358.5 205.5,358.5C 205.5,359.833 205.5,361.167 205.5,362.5C 193.471,376.192 181.471,389.859 169.5,403.5C 168.167,403.5 166.833,403.5 165.5,403.5C 165.5,404.833 165.5,406.167 165.5,407.5C 164.596,408.209 164.263,409.209 164.5,410.5C 230.501,410.667 296.501,410.5 362.5,410C 363.056,409.617 363.389,409.117 363.5,408.5C 364.514,407.326 365.847,406.66 367.5,406.5C 370.946,405.388 372.946,403.055 373.5,399.5C 375.045,398.77 375.878,397.437 376,395.5C 376.5,312.834 376.667,230.167 376.5,147.5C 407.5,147.5 438.5,147.5 469.5,147.5C 469.5,246.833 469.5,346.167 469.5,445.5C 469.068,449.099 467.902,452.432 466,455.5C 465.503,457.81 465.337,460.143 465.5,462.5C 465.5,462.833 465.5,463.167 465.5,463.5C 464.325,463.281 463.325,463.614 462.5,464.5C 461.652,466.409 461.318,468.409 461.5,470.5C 461.068,471.71 460.401,472.71 459.5,473.5C 458.5,473.5 457.5,473.5 456.5,473.5C 456.5,474.833 456.5,476.167 456.5,477.5C 451.609,484.399 445.275,489.399 437.5,492.5C 433.753,493.081 430.086,494.081 426.5,495.5C 426.137,496.183 425.804,496.85 425.5,497.5C 421.731,497.244 418.064,497.577 414.5,498.5C 301.155,498.817 187.822,498.484 74.5,497.5C 72.3155,495.415 69.6489,494.415 66.5,494.5C 64.4471,494.598 62.7804,493.931 61.5,492.5C 61.0269,491.094 60.0269,490.427 58.5,490.5C 58.0269,489.094 57.0269,488.427 55.5,488.5C 54.4154,486.413 52.7488,485.08 50.5,484.5C 48.5956,484.262 47.2623,483.262 46.5,481.5C 46.5,479.5 45.5,478.5 43.5,478.5C 42.8333,477.5 42.1667,476.5 41.5,475.5C 41.1298,472.733 39.7964,470.733 37.5,469.5C 36.3263,468.486 35.6596,467.153 35.5,465.5C 35.6138,462.784 34.6138,460.784 32.5,459.5C 32.5,459.167 32.5,458.833 32.5,458.5C 30.8234,449.352 30.1567,440.018 30.5,430.5C 30.9926,428.194 31.3259,425.861 31.5,423.5C 31.366,421.708 31.6993,420.042 32.5,418.5C 34.8337,416.824 35.8337,414.491 35.5,411.5C 38.0838,410.952 39.0838,409.285 38.5,406.5C 40.369,404.966 41.7023,402.966 42.5,400.5C 44.5869,399.415 45.9202,397.749 46.5,395.5C 46.5,394.833 46.8333,394.5 47.5,394.5C 49.5869,393.415 50.9202,391.749 51.5,389.5C 54.0862,388.362 55.7529,386.362 56.5,383.5C 57.5,381.833 58.8333,380.5 60.5,379.5C 62.914,378.089 64.5806,376.089 65.5,373.5C 65.8333,372.5 66.5,371.833 67.5,371.5C 70.2427,369.761 72.2427,367.427 73.5,364.5C 73.5,363.833 73.8333,363.5 74.5,363.5C 77.2427,361.761 79.2427,359.427 80.5,356.5C 80.8333,355.5 81.5,354.833 82.5,354.5C 84.5869,353.415 85.9202,351.749 86.5,349.5C 89.0862,348.362 90.7529,346.362 91.5,343.5C 92.5,341.833 93.8333,340.5 95.5,339.5C 98.2427,337.761 100.243,335.427 101.5,332.5C 101.833,331.5 102.5,330.833 103.5,330.5C 105.914,329.089 107.581,327.089 108.5,324.5C 108.833,323.5 109.5,322.833 110.5,322.5C 111.906,322.027 112.573,321.027 112.5,319.5C 116.876,317.423 119.876,314.089 121.5,309.5C 126.825,302.843 132.491,296.51 138.5,290.5C 140.914,289.089 142.581,287.089 143.5,284.5C 144.167,283.167 145.167,282.167 146.5,281.5C 148.587,280.415 149.92,278.749 150.5,276.5C 151.496,276.586 152.329,276.252 153,275.5C 154.421,273.595 155.588,271.595 156.5,269.5C 157.167,268.167 158.167,267.167 159.5,266.5C 160.708,265.766 162.041,265.433 163.5,265.5C 163.629,263.784 163.962,262.117 164.5,260.5C 164.833,259.5 165.5,258.833 166.5,258.5C 168.262,257.738 169.262,256.404 169.5,254.5C 171.371,254.141 172.871,253.141 174,251.5C 175.75,249.266 177.25,246.932 178.5,244.5C 179.167,243.167 180.167,242.167 181.5,241.5C 183.727,240.599 184.727,238.933 184.5,236.5C 135.167,236.5 85.8333,236.5 36.5,236.5C 36.5,206.833 36.5,177.167 36.5,147.5C 118.833,147.5 201.167,147.5 283.5,147.5 Z"/></g>
<g><path style="opacity:1" fill="#215677" d="M 375.5,147.5 C 375.833,147.5 376.167,147.5 376.5,147.5C 376.667,230.167 376.5,312.834 376,395.5C 375.878,397.437 375.045,398.77 373.5,399.5C 374.06,397.199 374.56,394.866 375,392.5C 375.5,310.834 375.667,229.167 375.5,147.5 Z"/></g>
<g><path style="opacity:1" fill="#6b8aa0" d="M 283.5,147.5 C 286.829,147.215 289.829,147.882 292.5,149.5C 289.273,149.324 286.273,148.657 283.5,147.5 Z"/></g>
<g><path style="opacity:1" fill="#33617e" d="M 375.5,147.5 C 406.996,146.502 438.662,146.168 470.5,146.5C 470.5,246.167 470.5,345.833 470.5,445.5C 470.167,445.5 469.833,445.5 469.5,445.5C 469.5,346.167 469.5,246.833 469.5,147.5C 438.5,147.5 407.5,147.5 376.5,147.5C 376.167,147.5 375.833,147.5 375.5,147.5 Z"/></g>
<g><path style="opacity:1" fill="#537790" d="M 296.5,150.5 C 298.75,151.13 300.75,152.13 302.5,153.5C 299.784,153.614 297.784,152.614 296.5,150.5 Z"/></g>
<g><path style="opacity:1" fill="#386080" d="M 310.5,158.5 C 312.167,159.5 313.5,160.833 314.5,162.5C 313.167,162.5 311.833,162.5 310.5,162.5C 310.5,161.167 310.5,159.833 310.5,158.5 Z"/></g>
<g><path style="opacity:1" fill="#587c95" d="M 314.5,162.5 C 316.914,163.911 318.581,165.911 319.5,168.5C 317.086,167.089 315.419,165.089 314.5,162.5 Z"/></g>
<g><path style="opacity:1" fill="#466e8a" d="M 325.5,178.5 C 327.806,182.085 329.139,186.085 329.5,190.5C 327.589,186.767 326.256,182.767 325.5,178.5 Z"/></g>
<g><path style="opacity:1" fill="#4c738d" d="M 329.5,190.5 C 330.165,193.649 330.498,196.982 330.5,200.5C 330.7,205.437 330.033,210.104 328.5,214.5C 329.276,206.525 329.61,198.525 329.5,190.5 Z"/></g>
<g><path style="opacity:1" fill="#456b89" d="M 328.5,214.5 C 328.405,216.786 327.738,218.786 326.5,220.5C 326.025,217.918 326.692,215.918 328.5,214.5 Z"/></g>
<g><path style="opacity:1" fill="#3f6584" d="M 326.5,221.5 C 324.988,225.201 322.988,228.534 320.5,231.5C 320.633,226.971 322.633,223.638 326.5,221.5 Z"/></g>
<g><path style="opacity:1" fill="#3d6483" d="M 320.5,231.5 C 320.262,233.404 319.262,234.738 317.5,235.5C 317.5,234.167 317.5,232.833 317.5,231.5C 318.5,231.5 319.5,231.5 320.5,231.5 Z"/></g>
<g><path style="opacity:1" fill="#4b7591" d="M 35.5,236.5 C 35.8333,236.5 36.1667,236.5 36.5,236.5C 85.8333,236.5 135.167,236.5 184.5,236.5C 184.727,238.933 183.727,240.599 181.5,241.5C 181.539,240.417 181.873,239.417 182.5,238.5C 133.335,237.833 84.335,237.167 35.5,236.5 Z"/></g>
<g><path style="opacity:1" fill="#466d8a" d="M 178.5,244.5 C 177.25,246.932 175.75,249.266 174,251.5C 172.871,253.141 171.371,254.141 169.5,254.5C 172.041,250.748 175.041,247.415 178.5,244.5 Z"/></g>
<g><path style="opacity:1" fill="#446885" d="M 302.5,253.5 C 301.5,255.167 300.167,256.5 298.5,257.5C 298.5,256.167 298.5,254.833 298.5,253.5C 299.833,253.5 301.167,253.5 302.5,253.5 Z"/></g>
<g><path style="opacity:1" fill="#5c7f97" d="M 169.5,254.5 C 169.262,256.404 168.262,257.738 166.5,258.5C 166.738,256.596 167.738,255.262 169.5,254.5 Z"/></g>
<g><path style="opacity:1" fill="#376080" d="M 164.5,260.5 C 163.962,262.117 163.629,263.784 163.5,265.5C 162.041,265.433 160.708,265.766 159.5,266.5C 160.419,263.911 162.086,261.911 164.5,260.5 Z"/></g>
<g><path style="opacity:1" fill="#527792" d="M 156.5,269.5 C 155.588,271.595 154.421,273.595 153,275.5C 152.329,276.252 151.496,276.586 150.5,276.5C 151.8,273.568 153.8,271.234 156.5,269.5 Z"/></g>
<g><path style="opacity:1" fill="#537891" d="M 150.5,276.5 C 149.92,278.749 148.587,280.415 146.5,281.5C 147.08,279.251 148.413,277.585 150.5,276.5 Z"/></g>
<g><path style="opacity:1" fill="#406684" d="M 278.5,280.5 C 277.5,282.167 276.167,283.5 274.5,284.5C 274.5,283.167 274.5,281.833 274.5,280.5C 275.833,280.5 277.167,280.5 278.5,280.5 Z"/></g>
<g><path style="opacity:1" fill="#537891" d="M 143.5,284.5 C 142.581,287.089 140.914,289.089 138.5,290.5C 139.419,287.911 141.086,285.911 143.5,284.5 Z"/></g>
<g><path style="opacity:1" fill="#436886" d="M 271.5,288.5 C 270.5,290.167 269.167,291.5 267.5,292.5C 267.5,291.167 267.5,289.833 267.5,288.5C 268.833,288.5 270.167,288.5 271.5,288.5 Z"/></g>
<g><path style="opacity:1" fill="#7692a5" d="M 264.5,295.5 C 264.573,297.027 263.906,298.027 262.5,298.5C 262.427,296.973 263.094,295.973 264.5,295.5 Z"/></g>
<g><path style="opacity:1" fill="#365f7f" d="M 261.5,299.5 C 260.5,301.167 259.167,302.5 257.5,303.5C 257.5,302.167 257.5,300.833 257.5,299.5C 258.833,299.5 260.167,299.5 261.5,299.5 Z"/></g>
<g><path style="opacity:1" fill="#3b6282" d="M 256.5,304.5 C 255.974,306.23 254.974,307.564 253.5,308.5C 253.5,307.167 253.5,305.833 253.5,304.5C 254.5,304.5 255.5,304.5 256.5,304.5 Z"/></g>
<g><path style="opacity:1" fill="#436b88" d="M 121.5,309.5 C 119.876,314.089 116.876,317.423 112.5,319.5C 115.51,316.126 118.51,312.792 121.5,309.5 Z"/></g>
<g><path style="opacity:1" fill="#608298" d="M 112.5,319.5 C 112.573,321.027 111.906,322.027 110.5,322.5C 110.427,320.973 111.094,319.973 112.5,319.5 Z"/></g>
<g><path style="opacity:1" fill="#436887" d="M 240.5,323.5 C 239.5,325.167 238.167,326.5 236.5,327.5C 236.5,326.167 236.5,324.833 236.5,323.5C 237.833,323.5 239.167,323.5 240.5,323.5 Z"/></g>
<g><path style="opacity:1" fill="#4f748f" d="M 108.5,324.5 C 107.581,327.089 105.914,329.089 103.5,330.5C 104.419,327.911 106.086,325.911 108.5,324.5 Z"/></g>
<g><path style="opacity:1" fill="#517690" d="M 101.5,332.5 C 100.243,335.427 98.2427,337.761 95.5,339.5C 96.7573,336.573 98.7573,334.239 101.5,332.5 Z"/></g>
<g><path style="opacity:1" fill="#426a88" d="M 91.5,343.5 C 90.7529,346.362 89.0862,348.362 86.5,349.5C 87.7007,347.091 89.3674,345.091 91.5,343.5 Z"/></g>
<g><path style="opacity:1" fill="#537992" d="M 86.5,349.5 C 85.9202,351.749 84.5869,353.415 82.5,354.5C 83.0798,352.251 84.4131,350.585 86.5,349.5 Z"/></g>
<g><path style="opacity:1" fill="#466a88" d="M 209.5,358.5 C 208.5,360.167 207.167,361.5 205.5,362.5C 205.5,361.167 205.5,359.833 205.5,358.5C 206.833,358.5 208.167,358.5 209.5,358.5 Z"/></g>
<g><path style="opacity:1" fill="#50758f" d="M 80.5,356.5 C 79.2427,359.427 77.2427,361.761 74.5,363.5C 75.7573,360.573 77.7573,358.239 80.5,356.5 Z"/></g>
<g><path style="opacity:1" fill="#4d738e" d="M 73.5,364.5 C 72.2427,367.427 70.2427,369.761 67.5,371.5C 68.7573,368.573 70.7573,366.239 73.5,364.5 Z"/></g>
<g><path style="opacity:1" fill="#557892" d="M 65.5,373.5 C 64.5806,376.089 62.914,378.089 60.5,379.5C 61.4194,376.911 63.086,374.911 65.5,373.5 Z"/></g>
<g><path style="opacity:1" fill="#3e6886" d="M 56.5,383.5 C 55.7529,386.362 54.0862,388.362 51.5,389.5C 52.7007,387.091 54.3674,385.091 56.5,383.5 Z"/></g>
<g><path style="opacity:1" fill="#4f7590" d="M 51.5,389.5 C 50.9202,391.749 49.5869,393.415 47.5,394.5C 48.0798,392.251 49.4131,390.585 51.5,389.5 Z"/></g>
<g><path style="opacity:1" fill="#456d89" d="M 46.5,395.5 C 45.9202,397.749 44.5869,399.415 42.5,400.5C 43.0798,398.251 44.4131,396.585 46.5,395.5 Z"/></g>
<g><path style="opacity:1" fill="#466e8a" d="M 373.5,399.5 C 372.946,403.055 370.946,405.388 367.5,406.5C 369.529,404.142 371.529,401.808 373.5,399.5 Z"/></g>
<g><path style="opacity:1" fill="#3f6583" d="M 169.5,403.5 C 168.5,405.167 167.167,406.5 165.5,407.5C 165.5,406.167 165.5,404.833 165.5,403.5C 166.833,403.5 168.167,403.5 169.5,403.5 Z"/></g>
<g><path style="opacity:1" fill="#356180" d="M 42.5,400.5 C 41.7023,402.966 40.369,404.966 38.5,406.5C 38.8449,403.802 40.1782,401.802 42.5,400.5 Z"/></g>
<g><path style="opacity:1" fill="#517691" d="M 165.5,407.5 C 231.331,408.499 297.331,408.832 363.5,408.5C 363.389,409.117 363.056,409.617 362.5,410C 296.501,410.5 230.501,410.667 164.5,410.5C 164.263,409.209 164.596,408.209 165.5,407.5 Z"/></g>
<g><path style="opacity:1" fill="#396282" d="M 38.5,406.5 C 39.0838,409.285 38.0838,410.952 35.5,411.5C 35.7497,409.326 36.7497,407.659 38.5,406.5 Z"/></g>
<g><path style="opacity:1" fill="#4e738e" d="M 35.5,411.5 C 35.8337,414.491 34.8337,416.824 32.5,418.5C 32.9348,415.843 33.9348,413.509 35.5,411.5 Z"/></g>
<g><path style="opacity:1" fill="#6b899e" d="M 31.5,423.5 C 31.3259,425.861 30.9926,428.194 30.5,430.5C 30.1667,430.5 29.8333,430.5 29.5,430.5C 29.4095,427.848 30.0762,425.515 31.5,423.5 Z"/></g>
<g><path style="opacity:1" fill="#587d96" d="M 29.5,430.5 C 29.8333,430.5 30.1667,430.5 30.5,430.5C 30.1567,440.018 30.8234,449.352 32.5,458.5C 28.7578,449.555 27.7578,440.221 29.5,430.5 Z"/></g>
<g><path style="opacity:1" fill="#446a88" d="M 469.5,445.5 C 469.833,445.5 470.167,445.5 470.5,445.5C 470.207,451.675 468.541,457.342 465.5,462.5C 465.337,460.143 465.503,457.81 466,455.5C 467.902,452.432 469.068,449.099 469.5,445.5 Z"/></g>
<g><path style="opacity:1" fill="#4d728c" d="M 32.5,459.5 C 34.6138,460.784 35.6138,462.784 35.5,465.5C 34.1302,463.75 33.1302,461.75 32.5,459.5 Z"/></g>
<g><path style="opacity:1" fill="#37607f" d="M 465.5,463.5 C 464.404,466.032 463.071,468.365 461.5,470.5C 461.318,468.409 461.652,466.409 462.5,464.5C 463.325,463.614 464.325,463.281 465.5,463.5 Z"/></g>
<g><path style="opacity:1" fill="#4b708c" d="M 37.5,469.5 C 39.7964,470.733 41.1298,472.733 41.5,475.5C 39.684,473.882 38.3507,471.882 37.5,469.5 Z"/></g>
<g><path style="opacity:1" fill="#436785" d="M 459.5,473.5 C 458.974,475.23 457.974,476.564 456.5,477.5C 456.5,476.167 456.5,474.833 456.5,473.5C 457.5,473.5 458.5,473.5 459.5,473.5 Z"/></g>
<g><path style="opacity:1" fill="#6b899c" d="M 43.5,478.5 C 45.5,478.5 46.5,479.5 46.5,481.5C 45.1667,480.833 44.1667,479.833 43.5,478.5 Z"/></g>
<g><path style="opacity:1" fill="#4a708b" d="M 50.5,484.5 C 52.7488,485.08 54.4154,486.413 55.5,488.5C 53.2512,487.92 51.5846,486.587 50.5,484.5 Z"/></g>
<g><path style="opacity:1" fill="#4d738d" d="M 55.5,488.5 C 57.0269,488.427 58.0269,489.094 58.5,490.5C 56.9731,490.573 55.9731,489.906 55.5,488.5 Z"/></g>
<g><path style="opacity:1" fill="#61839a" d="M 58.5,490.5 C 60.0269,490.427 61.0269,491.094 61.5,492.5C 59.9731,492.573 58.9731,491.906 58.5,490.5 Z"/></g>
<g><path style="opacity:1" fill="#375f7f" d="M 437.5,492.5 C 434.017,495.237 430.017,496.903 425.5,497.5C 425.804,496.85 426.137,496.183 426.5,495.5C 430.086,494.081 433.753,493.081 437.5,492.5 Z"/></g>
<g><path style="opacity:1" fill="#406986" d="M 66.5,494.5 C 69.6489,494.415 72.3155,495.415 74.5,497.5C 71.3511,497.585 68.6845,496.585 66.5,494.5 Z"/></g>
<g><path style="opacity:1" fill="#456c89" d="M 425.5,497.5 C 422.091,498.903 418.425,499.57 414.5,499.5C 414.5,499.167 414.5,498.833 414.5,498.5C 418.064,497.577 421.731,497.244 425.5,497.5 Z"/></g>
<g><path style="opacity:1" fill="#114a6e" d="M 74.5,497.5 C 187.822,498.484 301.155,498.817 414.5,498.5C 414.5,498.833 414.5,499.167 414.5,499.5C 302.833,499.667 191.166,499.5 79.5,499C 77.6183,498.802 75.9516,498.302 74.5,497.5 Z"/></g>
</svg>
