<svg xmlns="http://www.w3.org/2000/svg" width="512" height="512" viewBox="0 0 512 512" version="1.1"><path d="M 408.330 10.975 C 383.912 18.187, 367 40.499, 367 65.500 C 367 80.692, 372.572 93.738, 383.914 105.099 C 396.329 117.536, 411.483 123.145, 428.500 121.601 C 442.933 120.293, 454.968 114.253, 465.176 103.194 C 493.623 72.379, 479.075 22.603, 438.205 10.916 C 429.609 8.457, 416.768 8.483, 408.330 10.975 M 35.466 148.228 C 35.198 148.927, 35.096 169.300, 35.239 193.500 L 35.500 237.500 109.355 237.756 C 172.271 237.975, 183.129 238.221, 182.670 239.417 C 182.374 240.189, 172.523 251.774, 160.779 265.160 C 97.131 337.711, 47.062 395.028, 43.865 399 C 27.413 419.435, 24.814 446.798, 37.216 469 C 45.553 483.923, 60.840 495.441, 76.874 498.880 C 80.614 499.682, 130.028 500, 250.839 500 C 438.074 500, 424.479 500.488, 438.408 493.266 C 447.946 488.320, 459.320 476.946, 464.266 467.408 C 471.459 453.535, 471 465.107, 471 297.790 L 471 147 423.519 147 L 376.038 147 375.769 271.750 C 375.520 387.375, 375.375 396.729, 373.786 399.631 C 371.744 403.360, 366.703 407.794, 363.673 408.525 C 362.478 408.813, 317.555 408.926, 263.846 408.775 L 166.191 408.500 204.718 365 C 225.907 341.075, 259.869 302.759, 280.189 279.854 C 320.729 234.155, 320.926 233.917, 324.968 226 C 329.339 217.436, 331 210.532, 331 200.924 C 331 190.554, 328.718 182.242, 323.472 173.500 C 317.062 162.821, 307.936 155.291, 295.225 150.196 L 288.500 147.500 162.227 147.228 C 60.751 147.009, 35.859 147.205, 35.466 148.228" stroke="none" fill="#043c64" fill-rule="evenodd"/></svg>